<svg xmlns="http://www.w3.org/2000/svg" width="900" height="620" viewBox="0 0 900 620" role="img" aria-label="Membrane switch structure">
  <defs>
    <linearGradient id="bg" x1="0" y1="0" x2="1" y2="1"><stop stop-color="#f8fbfc"/><stop offset="1" stop-color="#e7eff2"/></linearGradient>
    <filter id="s"><feDropShadow dx="0" dy="18" stdDeviation="20" flood-color="#15202b" flood-opacity=".16"/></filter>
  </defs>
  <rect width="900" height="620" fill="url(#bg)"/>
  <g filter="url(#s)">
    <rect x="160" y="130" width="540" height="86" rx="18" fill="#15202b"/>
    <rect x="200" y="162" width="160" height="18" rx="9" fill="#0b6f78"/>
    <circle cx="520" cy="173" r="24" fill="#d9a441"/>
    <circle cx="585" cy="173" r="24" fill="#b95c2a"/>
    <rect x="200" y="252" width="540" height="38" rx="10" fill="#d8e0e8"/>
    <rect x="230" y="322" width="540" height="38" rx="10" fill="#ffffff" stroke="#c8d3dd" stroke-width="2"/>
    <g fill="#0b6f78">
      <circle cx="320" cy="341" r="14"/>
      <circle cx="390" cy="341" r="14"/>
      <circle cx="460" cy="341" r="14"/>
      <circle cx="530" cy="341" r="14"/>
    </g>
    <path d="M380 395 H680 C720 395 730 420 730 445 V505 H640 V450 H380 Z" fill="#f7fafb" stroke="#c8d3dd" stroke-width="2"/>
    <g stroke="#b95c2a" stroke-width="8" stroke-linecap="round">
      <path d="M420 430 H635"/>
      <path d="M420 460 H635"/>
      <path d="M420 490 H595"/>
    </g>
  </g>
</svg>
